HIERARCHY
ROOT Hips
{
	OFFSET -14.64140 90.27770 -84.91600
	CHANNELS 6 Xposition Yposition Zposition Zrotation Xrotation Yrotation
	JOINT Spine
	{
		OFFSET 0.00000 13.20850 -1.60436
		CHANNELS 3 Zrotation Xrotation Yrotation
		JOINT Spine1
		{
			OFFSET 0.00000 8.61716 0.00000
			CHANNELS 3 Zrotation Xrotation Yrotation
			JOINT Spine2
			{
				OFFSET 0.00000 8.61717 0.00000
				CHANNELS 3 Zrotation Xrotation Yrotation
				JOINT Spine3
				{
					OFFSET 0.00000 8.61717 0.00000
					CHANNELS 3 Zrotation Xrotation Yrotation
					JOINT Neck
					{
						OFFSET 0.00000 11.07920 1.10792
						CHANNELS 3 Zrotation Xrotation Yrotation
						JOINT Neck1
						{
							OFFSET 0.00000 7.08032 0.00000
							CHANNELS 3 Zrotation Xrotation Yrotation
							JOINT Head
							{
								OFFSET 0.00000 7.08031 0.00000
								CHANNELS 3 Zrotation Xrotation Yrotation
								End site
								{
									OFFSET 0.00000 0.00000 0.00000
								}
							}
						}
					}
					JOINT RightShoulder
					{
						OFFSET -0.01000 7.91373 5.19711
						CHANNELS 3 Zrotation Xrotation Yrotation
						JOINT RightArm
						{
							OFFSET -18.41580 0.00000 0.00000
							CHANNELS 3 Zrotation Xrotation Yrotation
							JOINT RightForeArm
							{
								OFFSET -29.11090 0.00000 0.00000
								CHANNELS 3 Zrotation Xrotation Yrotation
								JOINT RightHand
								{
									OFFSET -24.65040 0.00000 0.00000
									CHANNELS 3 Zrotation Xrotation Yrotation
									JOINT RightHandThumb1
									{
										OFFSET -5.35114 -0.85590 3.97906
										CHANNELS 3 Zrotation Xrotation Yrotation
										JOINT RightHandThumb2
										{
											OFFSET -4.52789 0.00000 0.00000
											CHANNELS 3 Zrotation Xrotation Yrotation
											JOINT RightHandThumb3
											{
												OFFSET -2.46976 0.00000 0.00000
												CHANNELS 3 Zrotation Xrotation Yrotation
												End site
												{
													OFFSET 0.00000 0.00000 0.00000
												}
											}
										}
									}
									JOINT RightHandIndex1
									{
										OFFSET -14.26970 0.00000 2.88139
										CHANNELS 3 Zrotation Xrotation Yrotation
										JOINT RightHandIndex2
										{
											OFFSET -5.48836 0.00000 0.00000
											CHANNELS 3 Zrotation Xrotation Yrotation
											JOINT RightHandIndex3
											{
												OFFSET -3.01859 0.00000 0.00000
												CHANNELS 3 Zrotation Xrotation Yrotation
												End site
												{
													OFFSET 0.00000 0.00000 0.00000
												}
											}
										}
									}
									JOINT RightHandMiddle1
									{
										OFFSET -14.26970 0.00000 -0.09147
										CHANNELS 3 Zrotation Xrotation Yrotation
										JOINT RightHandMiddle2
										{
											OFFSET -6.17441 0.00000 0.00000
											CHANNELS 3 Zrotation Xrotation Yrotation
											JOINT RightHandMiddle3
											{
												OFFSET -3.56743 0.00000 0.00000
												CHANNELS 3 Zrotation Xrotation Yrotation
												End site
												{
													OFFSET 0.00000 0.00000 0.00000
												}
											}
										}
									}
									JOINT RightHandRing1
									{
										OFFSET -12.69180 0.00000 -3.06433
										CHANNELS 3 Zrotation Xrotation Yrotation
										JOINT RightHandRing2
										{
											OFFSET -5.62556 0.00000 0.00000
											CHANNELS 3 Zrotation Xrotation Yrotation
											JOINT RightHandRing3
											{
												OFFSET -3.56744 0.00000 0.00000
												CHANNELS 3 Zrotation Xrotation Yrotation
												End site
												{
													OFFSET 0.00000 0.00000 0.00000
												}
											}
										}
									}
									JOINT RightHandPinky1
									{
										OFFSET -11.11390 0.00000 -6.03719
										CHANNELS 3 Zrotation Xrotation Yrotation
										JOINT RightHandPinky2
										{
											OFFSET -4.52789 0.00000 0.00000
											CHANNELS 3 Zrotation Xrotation Yrotation
											JOINT RightHandPinky3
											{
												OFFSET -2.46976 0.00000 0.00000
												CHANNELS 3 Zrotation Xrotation Yrotation
												End site
												{
													OFFSET 0.00000 0.00000 0.00000
												}
											}
										}
									}
								}
							}
						}
					}
					JOINT LeftShoulder
					{
						OFFSET 0.01000 7.91373 5.19711
						CHANNELS 3 Zrotation Xrotation Yrotation
						JOINT LeftArm
						{
							OFFSET 18.41580 0.00000 0.00000
							CHANNELS 3 Zrotation Xrotation Yrotation
							JOINT LeftForeArm
							{
								OFFSET 29.11090 0.00000 0.00000
								CHANNELS 3 Zrotation Xrotation Yrotation
								JOINT LeftHand
								{
									OFFSET 24.65040 0.00000 0.00000
									CHANNELS 3 Zrotation Xrotation Yrotation
									JOINT LeftHandThumb1
									{
										OFFSET 5.35114 -0.85590 3.97906
										CHANNELS 3 Zrotation Xrotation Yrotation
										JOINT LeftHandThumb2
										{
											OFFSET 4.52789 0.00000 0.00000
											CHANNELS 3 Zrotation Xrotation Yrotation
											JOINT LeftHandThumb3
											{
												OFFSET 2.46977 0.00000 0.00000
												CHANNELS 3 Zrotation Xrotation Yrotation
												End site
												{
													OFFSET 0.00000 0.00000 0.00000
												}
											}
										}
									}
									JOINT LeftHandIndex1
									{
										OFFSET 14.26970 0.00000 2.88139
										CHANNELS 3 Zrotation Xrotation Yrotation
										JOINT LeftHandIndex2
										{
											OFFSET 5.48836 0.00000 0.00000
											CHANNELS 3 Zrotation Xrotation Yrotation
											JOINT LeftHandIndex3
											{
												OFFSET 3.01859 0.00000 0.00000
												CHANNELS 3 Zrotation Xrotation Yrotation
												End site
												{
													OFFSET 0.00000 0.00000 0.00000
												}
											}
										}
									}
									JOINT LeftHandMiddle1
									{
										OFFSET 14.26970 0.00000 -0.09147
										CHANNELS 3 Zrotation Xrotation Yrotation
										JOINT LeftHandMiddle2
										{
											OFFSET 6.17440 0.00000 0.00000
											CHANNELS 3 Zrotation Xrotation Yrotation
											JOINT LeftHandMiddle3
											{
												OFFSET 3.56744 0.00000 0.00000
												CHANNELS 3 Zrotation Xrotation Yrotation
												End site
												{
													OFFSET 0.00000 0.00000 0.00000
												}
											}
										}
									}
									JOINT LeftHandRing1
									{
										OFFSET 12.69180 0.00000 -3.06433
										CHANNELS 3 Zrotation Xrotation Yrotation
										JOINT LeftHandRing2
										{
											OFFSET 5.62556 0.00000 0.00000
											CHANNELS 3 Zrotation Xrotation Yrotation
											JOINT LeftHandRing3
											{
												OFFSET 3.56744 0.00000 0.00000
												CHANNELS 3 Zrotation Xrotation Yrotation
												End site
												{
													OFFSET 0.00000 0.00000 0.00000
												}
											}
										}
									}
									JOINT LeftHandPinky1
									{
										OFFSET 11.11390 0.00000 -6.03719
										CHANNELS 3 Zrotation Xrotation Yrotation
										JOINT LeftHandPinky2
										{
											OFFSET 4.52789 0.00000 0.00000
											CHANNELS 3 Zrotation Xrotation Yrotation
											JOINT LeftHandPinky3
											{
												OFFSET 2.46976 0.00000 0.00000
												CHANNELS 3 Zrotation Xrotation Yrotation
												End site
												{
													OFFSET 0.00000 0.00000 0.00000
												}
											}
										}
									}
								}
							}
						}
					}
					JOINT pCube4
					{
						OFFSET 0.00000 10.91090 1.10792
						CHANNELS 3 Zrotation Xrotation Yrotation
						End site
						{
							OFFSET 0.00000 0.00000 0.00000
						}
					}
				}
			}
		}
	}
	JOINT RightUpLeg
	{
		OFFSET -9.98441 0.00000 0.00000
		CHANNELS 3 Zrotation Xrotation Yrotation
		JOINT RightLeg
		{
			OFFSET 0.00000 -42.11790 0.00000
			CHANNELS 3 Zrotation Xrotation Yrotation
			JOINT RightFoot
			{
				OFFSET 0.00000 -45.00020 -0.00001
				CHANNELS 3 Zrotation Xrotation Yrotation
				JOINT RightForeFoot
				{
					OFFSET 0.00000 -3.74820 0.00000
					CHANNELS 3 Zrotation Xrotation Yrotation
					JOINT RightToeBase
					{
						OFFSET 0.00000 0.06325 14.43120
						CHANNELS 3 Zrotation Xrotation Yrotation
						End site
						{
							OFFSET 0.00000 0.00000 0.00000
						}
					}
				}
			}
		}
	}
	JOINT LeftUpLeg
	{
		OFFSET 9.98441 0.00000 0.00000
		CHANNELS 3 Zrotation Xrotation Yrotation
		JOINT LeftLeg
		{
			OFFSET 0.00000 -42.11800 0.00000
			CHANNELS 3 Zrotation Xrotation Yrotation
			JOINT LeftFoot
			{
				OFFSET 0.00000 -45.00070 0.00000
				CHANNELS 3 Zrotation Xrotation Yrotation
				JOINT LeftForeFoot
				{
					OFFSET 0.00000 -3.74824 0.00000
					CHANNELS 3 Zrotation Xrotation Yrotation
					JOINT LeftToeBase
					{
						OFFSET 0.00000 0.06325 14.43110
						CHANNELS 3 Zrotation Xrotation Yrotation
						End site
						{
							OFFSET 0.00000 0.00000 0.00000
						}
					}
				}
			}
		}
	}
}
MOTION
Frames: 4
Frame Time: 0.050000
-0.0035502311042508203 -0.028452773530255666 -0.026941894144765985 -0.009925046736070696 -0.04199653041687673 0.020432977862183215 0.3883787561343239 1.4393177244659092 -1.3655145511380715 -0.4677419571699249 3.7723721521515476 0.3088210684039196 -0.6602378269816794 -1.583928833437651 0.7195215088755893 -0.9285950908426192 -0.49157141559996725 -0.38140809438245893 -0.32490801701761446 12.886400927016057 0.22654440734364065 0.6606376671352349 -0.5705648258009207 -0.011222827153672323 0.7786168832599845 -16.16456905236006 -0.03013162258999558 -2.7838863882614078 1.4335816509388006 -15.268080931418515 72.39546285826219 14.738457387069975 5.2508925511269755 13.269249190575737 5.620859174492277 89.46618534012451 23.651665558859158 -0.36019592762532904 -4.98388890583081 4.532787571103267 -0.14019596230124953 -1.5433011368384415 -0.04295538009736382 0.025504223468274946 -56.22905236969511 -0.010444129982967594 0.009087511191442053 -56.275019190877416 -38.74615346369503 -0.03847388895119475 0.04808001868785935 0.0037793595390199206 0.003912870179427883 -0.01642756065269191 0.033682064479783926 0.021711977005187025 -0.03886771543211281 -36.69373129286509 -0.021484676661330266 -0.035808983486600256 -0.0034071610408899972 0.02072473356047632 0.015825525632349485 -0.04750356452126651 0.04366219347175189 -0.006862955205947227 -19.793306504431285 -0.02280985730077845 0.013141536846921827 0.014416532651591532 -0.04975664850458116 0.0007693008418207845 -0.014006955251943645 -0.016366039071110818 -0.023490878516557713 24.08140043091916 0.007243524629207335 -0.003855644997121767 28.827911864943527 0.04717592529997456 0.01604965433046765 28.85749826238489 -0.031093276280946675 0.045765467536199145 5.547872676290515 1.5409179876020949 14.102977410435885 -76.91550276968276 26.50991613521121 -8.454240715431176 -58.894571887237305 15.538340578375584 -103.41151187021575 -21.31031490818189 0.5659862313824011 0.9627436267764312 -0.45662713659273724 0.0699634063824924 -8.118328381397324 -0.0015091267873019389 -0.03867838343530225 44.564644562689914 0.026282674107981165 0.040348529081977044 44.584188116145974 12.473100280612487 -0.029464216120531482 0.007568040814560345 0.03817365404938169 0.034389174516241225 0.007778030302343692 0.01390611138497636 0.046063886971155744 0.023301778642754546 11.088317889154132 -0.04745280714899219 0.004540128566578394 0.030826615864998113 0.004590853704601306 -0.0021020775376487956 -0.04029270566682817 0.02147815659305597 -0.0031966488893289554 4.792047932988341 -0.01627010597746151 0.027096226730322016 -0.03582205839057846 -0.03536852892288118 0.02901414479752752 -0.03332685464840052 0.0008727195783184764 -0.022724931979506886 -5.580231683050061 -0.0319273745350735 -0.02793425422645371 -6.738916275577616 0.034742826703531904 -0.03971851696825926 -6.77065366564069 0.004428962016297413 0.03161570196689861 0.018112320980324982 -0.022115601552261457 -0.023996828509025743 7.998151133201101 3.459958749206614 -19.238333173295764 -0.019232141406842634 10.420712349818649 0.03137718606027096 -5.584246303638975 -15.65776711340317 3.2187406208339873 0.004659666178916912 -0.02612483484588914 -0.023549017115611887 0.026421552495203674 4.690490646206601 0.04790494247597391 12.461710887200791 -8.267294692969964 6.853588665254014 0.0021540162976812945 46.41298636605855 -0.007446341124364085 -4.290850179945166 -14.739185375916467 -3.8096812201826316 0.04160498032731016 0.04968711941765699 0.0022394558432953494 -0.033675220904784114 -10.783392013952668 0.0017798710313478086 
0.022517097748737946 -0.0016777592502823268 0.014912383584588872 0.042510622081013506 -0.0035898364208883484 0.04887338701915467 -0.023611067792967576 1.4382759065883575 -1.307705410801184 -0.4935455934078512 3.8459051107299937 0.3289986769917932 -0.7358369734641933 -1.63894821961621 0.7011626907837222 -0.9221369146188139 -0.5049301283879318 -0.409897315618925 -0.371024241465454 13.04602762161639 0.29107185258590723 0.654014369816256 -0.6527536532565988 0.09820722758909999 0.7403999865263583 -16.13952334652883 -0.06609501932042446 -2.333371745497781 1.2809157295683071 -15.204325708181774 71.94162869008923 14.940321942746834 5.1688980524044394 12.53256147224563 6.116010868422524 87.56025007649356 24.107244583928377 -0.34149295618503706 -4.647649844431216 4.55308402952649 -0.15617914337648767 -1.5437570476858218 -0.025735095561231356 0.03498609521791143 -56.22452310175156 -0.014414195593047864 -0.0327863258247135 -56.184754310857485 -38.785011856928385 0.04816672024739413 -0.03660268611531957 0.010322524349794054 0.02413787476621716 0.009774392924414246 -0.02822759280120649 0.04641511188443942 0.04333688072101076 -36.717970129610215 -0.008772343175066444 -0.01785818310327346 -0.009774214378034168 -0.01020303802211367 -0.03647505849229715 -0.0005166140801622833 0.03151330336438208 -0.017574981006983376 -19.75014268637518 -0.005710722340918236 0.040853933226168655 0.010929694554226729 0.03338933202515298 0.0033458101525393573 -0.03840391918273863 -0.00775645807156085 0.031770157559610865 24.059055397265173 -0.00502896658362021 -0.01887170586614014 28.835701639173266 0.005731857687466893 -0.045887221297012074 28.847230419463212 -0.0316734387562416 0.02536875065858066 5.214850350575141 1.4937471018934227 14.180696846006306 -76.87622887830804 26.946973740330147 -8.797461309330506 -55.5966701774886 14.540365738710992 -102.60020465442639 -21.119191232712268 0.9390641555224034 0.7898463346417884 -0.4786205704784497 0.07301738605287741 -8.168257224101303 0.005376803505127591 -0.014663868842341804 44.60909798095537 -0.03231783034431429 -0.03578487359294275 44.566655377796465 12.473703940767102 -0.01805631813704458 -0.019552973541422318 0.04092321527193358 -0.007087037939761343 -0.03582097528085025 -0.004957548329013721 0.020085260430616377 0.014244132511650638 11.146529010969065 -0.03611061332020421 0.01148992886400589 -0.04079589431374471 -0.013609607726238433 0.005597892753811223 0.000392525039581547 0.02033126189000236 0.0029095924204269466 4.752493198065981 -0.02744365341724956 -0.04126610412244221 -0.004686830485863794 -0.034764407065499284 0.032560659426804146 -0.005447390343901975 -0.02310539614886756 -0.011273042748388301 -5.601628958473913 0.02820282611453006 0.04535079794118269 -6.737440403877689 -0.010259265143529364 0.04264012444552426 -6.732791681720506 0.026987554587039917 -0.044444910840759945 -0.02380808661689976 -0.019232471602872163 0.04988078104774453 8.033144978164097 3.5339877830914967 -19.247557561884033 0.001535553721542041 10.380170993701979 -0.004308220799897167 -5.654564291871589 -15.669575934951197 3.2332151949679204 0.0009407111597371677 0.017047662931725084 0.006001382702996122 0.04000916983019538 4.659599592891735 0.016770228553961448 12.470174392487937 -8.242165055660607 6.895007739825715 -0.016711638720124357 46.40974771631651 -0.002998864088051725 -4.328516636968274 -14.77093913146639 -3.813245587292442 -0.013148280228648687 -0.018702234399833595 0.031030898557346677 0.018048739372191737 -10.695641017548011 0.01625248035466601 
-0.008617855319198339 0.01867926882741757 -0.016434707478199126 -0.018360524955695002 0.016841115030658365 0.007960726099473646 -0.5070912609517494 1.4460940645946654 -1.2144296244978015 -0.46274020225891843 3.9437350632055965 0.28237225008110606 -0.744815059606726 -1.7427760168107838 0.5978868010030499 -0.8231350599209751 -0.49735452727530455 -0.4491816924971922 -0.41533841312071185 13.210278841026112 0.38910866446227604 0.7079072257801189 -0.661931463563764 0.24117421129203234 0.7372289797109285 -16.17502427042556 -0.01087881261429819 -1.8259721751111184 1.0991667883999545 -15.199586581714602 71.42371144138055 14.202767252740449 5.233893203103373 12.377015822772885 6.990949251106357 85.06877893991982 24.70189876548579 -0.30101548218385454 -4.286925896384414 4.50507340028003 -0.10300767372125236 -1.5750131195605748 -0.043672536906908546 0.048413438009062594 -56.25747010378376 0.027903258030804397 0.007531118210368312 -56.210744385492944 -38.75278477080218 -0.022544000365585605 0.012514602334026022 0.021358673278177184 -0.0017510518631512428 0.0358666566449126 -0.0328850301882324 -0.04528919169223413 0.04558643379166691 -36.73111050803457 0.012790007904372416 0.0032293742423949853 -0.03399019147050519 -0.01381589992963952 0.0224206945089028 -0.04385391397525266 -0.04283678827897271 -0.014822885174297624 -19.716085294273046 0.04434328045618192 0.03908833142390433 -0.021905918398543625 -0.03630874166054771 0.014921559738292336 -0.022855514954163034 0.036833800949015914 -0.03528488710165739 24.093078351536438 0.0066646847939500105 -0.023170337466025634 28.90378453859302 0.028469659584009318 0.03459677842188257 28.855100517054844 -0.040397183707484755 0.0026878603521840027 4.944706984733982 1.429981679711188 14.227712206834545 -76.77661271391956 26.93074357225733 -9.24770236166258 -51.715059940759105 13.649015563649465 -101.7931536131053 -21.141814043717392 1.727197365799228 0.20474639922880544 -0.4980639438913048 0.052734470315478926 -8.157164591385309 0.015039880931515915 0.015688552025056524 44.528345840994376 -0.02939697313514153 -0.02052538286194951 44.541965674806555 12.506635374846384 -0.017656970671244193 -0.01571059308995537 0.031035951413867363 0.00031213717270939 0.03485926870219053 0.008983433623692383 -0.014797836068822212 0.017722832611823676 11.112777120311582 -0.0322163060755367 -0.0007928679366187856 -0.04850521936843023 0.004281485976682802 -0.010011802171886082 -0.02575565821070739 -0.01827946574853346 0.023297321651137737 4.77108149325108 0.010070238452642998 -0.00948331056649488 -0.031315190297780876 0.011564766120594497 -0.0473365669996572 0.015164147887932446 -0.025035670674669778 -0.017462192364491296 -5.56609627539895 0.008547692946854646 0.04774708294007162 -6.680388859752423 0.04297719037924288 0.012018447302173349 -6.727722104931732 -0.027316772494539603 -0.017772412826627622 0.03834631950610102 -0.0494915706355895 0.019970665691383168 8.051017009944426 3.533289361318245 -19.189135183510757 -0.029770235028146512 10.433221111377138 0.06070897616045039 -5.590787531304197 -15.679629804401438 3.1452642845080376 0.014562938303826914 0.027874351090796393 0.00827223604514704 0.0018685393789371143 4.6950150716608094 -0.02623064383528219 12.466692842782443 -8.217325611209027 6.880062616514807 0.0040408043837295545 46.42063929793439 0.039780981657640685 -4.29471290209225 -14.742505213539816 -3.8582224278673065 -0.02189866264294425 0.0021049462970212647 -0.046627007496105294 0.023132767292460242 -10.749156838143072 0.011236442964069436 
-0.0026509856046474617 0.00734893616143988 0.019030248777303624 -0.0404145889485617 -0.010302713351285419 -0.029672085546890034 -0.6446852630199567 1.4494976724064839 -1.182283730555638 -0.48319617885388727 4.000487649819242 0.29664241375404776 -0.6989122296409994 -1.7640803261461726 0.48809572916718724 -0.823403320148827 -0.5354057095479734 -0.4516531938435959 -0.42012803435707263 13.410051757720737 0.31893180015490763 0.667039691306907 -0.6934705901797357 0.2900575468232879 0.7912789610660979 -16.301467905758145 -0.014773727024882017 -1.7255849332712905 1.0432005729308849 -15.219948675911011 71.27962898339734 12.45265259221059 5.575979026086364 12.198356794099604 8.341618608388044 82.42808318826637 25.1176790810136 -0.25880204918798727 -3.5781437796329123 4.501649639840339 -0.07809473030509156 -1.6138406952303583 -0.028952639722818092 -0.002825500329321281 -56.21833493464238 -0.023397773232809227 0.027650043915184965 -56.20330762078994 -38.73855382257625 -0.01521688188902362 0.018859073822945795 -0.026504720343922025 -0.011306030297452568 -0.017302855526135644 0.015838738671496527 0.009006425418095446 -0.01027686287034343 -36.71750890748212 0.04506143585906065 -0.015727014953937538 -0.02590388993442595 0.015033564169647665 -0.004948823175341453 -0.02014494276772081 -0.009143680473845794 0.023381969934598068 -19.791894646136264 -0.011634078779471268 0.04744601580438063 -0.007561424594792138 -0.03636992358017991 0.02811866217717537 0.03528125611802503 0.0037585772993140006 -0.016434663265682763 24.099449886617293 -0.033923977558478556 0.006895367891245627 28.845532496571796 0.04504502688861381 -0.018640326106066914 28.832434760142824 -0.03536148713254482 0.007730865763256907 4.90099621439527 1.452232927093063 14.231075344145921 -76.65041717177117 26.78158502204108 -9.899991509903746 -47.47143517500875 12.575668489932836 -100.95624607060238 -21.1207470830573 2.351397468225545 -0.28075651986211014 -0.5230023729481653 0.09427217795154091 -8.117476858750658 -0.015216449190976694 -0.048228281306600194 44.60630748386816 0.030995034862570423 0.019528842749092758 44.58936349527769 12.499304085597013 -0.010195853733883093 0.00769520548865246 -0.016209087475191817 -0.027519252630893574 -0.009550685507400323 -0.04591550849374532 -0.03878888900732487 -0.047687646058361566 11.127667412790672 -0.003202099657482021 -0.014860555802715489 -0.018335730163767952 -0.03822365530827856 0.01454059591707298 -0.04154999551677416 -0.03138758964783011 0.03266707817083534 4.801836331339603 -0.034927162399785376 -0.02703727201064771 0.008647596113374827 -0.011896968954679807 -0.01805076645766895 0.013715888754767428 0.011687529259198222 0.0015948554361310497 -5.597085441854552 0.04273594614058286 -0.04809509660086838 -6.751387726294968 0.011660493525480145 0.0019843774394072587 -6.761059839205426 -0.04741595474653317 0.017719576876588938 0.004140424148785938 0.02007438015308264 -0.028236428655301495 8.042249676844168 3.5283910165777264 -19.182444049100997 -0.043231707983927135 10.42622050791589 0.0012243094534166409 -5.665827562447512 -15.660091226382413 3.186207343651685 0.01645265527553708 0.015520875882352559 0.027128043717277915 -0.03611014163347917 4.689171018215523 -0.01600385137797287 12.41601841162834 -8.190726259601618 6.903974888151134 0.02552788900302847 46.355799224235994 -0.03621791575062669 -4.319877802888243 -14.717263258875587 -3.824013757901326 -0.03993570429649397 0.019014364347270576 -0.015543397463260385 -0.022730482152314553 -10.739664177311251 0.024646222741433563 
